<svg width="261" height="46" viewBox="0 0 261 46" fill="none" xmlns="http://www.w3.org/2000/svg">
<path d="M25.7829 33.3508H27.8634V45.2648H31.6703V33.3508H35.4771V45.2648H39.284V33.3508H43.0908V45.2648H46.8977V33.3508H48.9634C49.6569 33.3508 50.2029 32.8163 50.2029 32.1692V30.9033C50.2029 30.2422 49.6422 29.7217 48.9634 29.7217H25.7829C25.0894 29.7217 24.5435 30.2563 24.5435 30.9033V32.1692C24.5435 32.8163 25.1042 33.3508 25.7829 33.3508Z" fill="url(#paint0_linear_4_175)"/>
<path d="M73.3096 34.1807H71.8193V34.1666L66.8468 21.6056C67.2157 21.6056 67.555 21.5915 67.8649 21.5493C71.3324 21.4368 73.59 17.7796 70.9783 15.2477C70.4176 14.5725 67.7174 13.4613 67.5551 14.8538C67.5403 15.2196 67.8502 15.529 68.2338 15.5431C69.488 15.5571 70.5356 16.6684 70.4176 17.8218C68.5732 24.4188 52.2686 10.7325 38.1331 18.1312V16.9075C39.461 16.584 40.4496 15.4446 40.4496 14.0661C40.4496 12.4485 39.0774 11.1404 37.3805 11.1404C35.6837 11.1404 34.3114 12.4485 34.3114 14.0661C34.3114 15.4306 35.3001 16.584 36.628 16.9075V18.1453C34.6951 17.1466 32.5851 16.4574 30.4456 16.1339C24.9124 15.2758 19.4529 16.598 14.2886 18.1172C11.8687 18.7502 9.40457 19.777 6.91093 19.6645C4.97799 19.6926 3.48771 17.8359 4.91897 16.2605C5.31736 15.8244 5.92233 15.5571 6.54205 15.529C6.91093 15.5149 7.22079 15.2336 7.22079 14.882C7.23555 14.5163 6.92569 14.2068 6.54205 14.1927C4.4468 14.1083 2.58764 15.8807 2.66142 17.8921C2.66142 20.0442 5.25834 21.5493 6.77814 21.5212C7.17653 21.5634 7.56016 21.5774 7.9438 21.5774L2.95652 34.1526V34.1666H1.46624C0.949809 34.1666 0.536661 34.6168 0.654703 35.095C1.23016 37.7394 4.25499 39.7509 7.88478 39.7509H8.29793H9.77345H9.90625C13.477 39.6946 16.4281 37.7113 17.0035 35.1091C17.1068 34.6308 16.7084 34.1807 16.192 34.1807H14.7017V34.1666L9.67017 21.4649C11.4556 21.2258 13.1967 20.7053 14.9378 20.3537C21.6957 18.6939 29.5455 17.5827 35.4919 21.6056V23.9546H20.2497C19.5562 23.9546 19.0102 24.4891 19.0102 25.1362V26.4021C19.0102 27.0632 19.5709 27.5837 20.2497 27.5837H54.5409C55.2344 27.5837 55.7804 27.0492 55.7804 26.4021V25.1362C55.7804 24.4751 55.2197 23.9546 54.5409 23.9546H39.2987V21.6056C40.9808 20.4803 42.899 19.6926 44.95 19.2565C49.834 18.2297 54.9688 19.2003 59.8528 20.3396C61.4169 20.6913 63.3646 21.1977 65.1204 21.4509L60.0889 34.1666V34.1807H58.5986C58.0822 34.1807 57.669 34.6308 57.7871 35.1091C58.3625 37.7113 61.3136 39.7087 64.8843 39.7509H65.0171H66.4927H66.9058C70.5356 39.7509 73.5457 37.7394 74.1359 35.095C74.2392 34.6308 73.826 34.1807 73.3096 34.1807ZM3.78282 34.1807L8.48974 22.2808V34.1807H8.29793H3.78282ZM9.90625 34.1807H9.27177V22.548L13.8754 34.1807H9.90625ZM64.8696 34.1807H60.9004L65.5041 22.548V34.1807H64.8696ZM66.4779 34.1807H66.2861V22.2808L70.993 34.1807H66.4779Z" fill="url(#paint1_linear_4_175)"/>
<path d="M60.089 45.2648C61.1661 43.9989 62.14 42.6345 62.9662 41.1997C62.4941 41.1153 62.0367 40.9887 61.6088 40.8481C60.6644 42.4376 59.5578 43.9145 58.3036 45.2648H60.089Z" fill="url(#paint2_linear_4_175)"/>
<path d="M16.487 45.2648C15.2476 43.9145 14.1409 42.4375 13.1966 40.8621C12.754 41.0028 12.2965 41.1153 11.8244 41.2138C12.6507 42.6485 13.6245 44.0129 14.7016 45.2789H16.487V45.2648Z" fill="url(#paint3_linear_4_175)"/>
<path d="M11.9572 17.0903C16.2805 7.79264 26.0485 1.29408 37.3805 1.29408C48.7126 1.29408 58.4658 7.79263 62.8038 17.0763C63.394 17.2451 63.9547 17.3998 64.4859 17.5264C60.1921 7.27219 49.6716 0 37.3805 0C25.0746 0 14.5394 7.30032 10.2603 17.5827C10.821 17.4279 11.3817 17.2732 11.9572 17.0903Z" fill="url(#paint4_linear_4_175)"/>
<path d="M91.163 24.5158L91.1986 27.7997C90.8789 28.3075 90.4646 28.7702 89.9438 29.1877C89.4229 29.6053 88.7837 29.9325 88.0379 30.1695C87.2921 30.4065 86.4161 30.5306 85.4099 30.5306C83.8118 30.5193 82.415 30.2259 81.2075 29.6504C80.0001 29.0749 79.0649 28.2511 78.3902 27.179C77.7272 26.1069 77.3958 24.8318 77.3958 23.3534C77.3958 21.8977 77.7272 20.6338 78.3902 19.573C79.0531 18.501 79.9882 17.6772 81.1957 17.0904C82.4031 16.5036 83.8473 16.2101 85.5046 16.2101C86.5818 16.2101 87.5407 16.323 88.393 16.5487C89.2453 16.7744 89.9674 17.0452 90.5593 17.3612L90.725 20.521H90.5356C90.1923 19.2796 89.5886 18.3655 88.7126 17.8013C87.8366 17.2258 86.8186 16.9437 85.6467 16.9437C84.5221 16.9437 83.5514 17.2032 82.7228 17.7223C81.906 18.2414 81.2667 18.9749 80.8287 19.9229C80.3789 20.8708 80.154 21.9993 80.154 23.297C80.154 24.5948 80.3671 25.7233 80.805 26.6938C81.243 27.653 81.8468 28.4091 82.6399 28.9394C83.433 29.4698 84.3564 29.752 85.4099 29.7745C86.4398 29.7745 87.3395 29.6052 88.0971 29.278C88.8547 28.9394 89.4821 28.3865 89.9793 27.6191C90.4646 26.8405 90.8079 25.8135 90.9973 24.5158H91.163Z" fill="#154759"/>
<path d="M95.0813 28.9169C94.9274 29.2893 94.9511 29.5601 95.1405 29.7633C95.3299 29.9551 95.543 30.0567 95.7797 30.0567H95.9455V30.2485H91.8851V30.0567H92.0509C92.335 30.0567 92.6309 29.9664 92.9387 29.7858C93.2465 29.6053 93.4832 29.3119 93.6845 28.9056H95.0813V28.9169ZM98.9996 18.0045L99.0588 20.0244L94.5013 30.2034H93.0571L97.8987 20.2727C97.9105 20.2163 97.9579 20.1034 98.0526 19.9229C98.1473 19.7423 98.242 19.5279 98.3485 19.2796C98.4551 19.0314 98.5616 18.7944 98.6445 18.5574C98.7392 18.3317 98.7865 18.1512 98.7984 18.0157H98.9996V18.0045ZM101 26.1634V26.8743H95.6614V26.1634H101ZM98.9996 18.0045L104.954 30.1357H102.089L98.0644 20.9949L98.9996 18.0045ZM101.557 28.9169H104.362C104.551 29.3232 104.8 29.6166 105.108 29.7971C105.416 29.9777 105.7 30.068 105.972 30.068H106.138V30.2598H100.692V30.068H100.858C101.095 30.068 101.308 29.9664 101.497 29.7745C101.687 29.5714 101.71 29.2893 101.557 28.9169Z" fill="#154759"/>
<path d="M110.754 18.2076C111.074 18.2076 111.406 18.2189 111.749 18.2414C112.104 18.264 112.435 18.2866 112.767 18.3317C113.098 18.3656 113.394 18.4107 113.643 18.4558C113.891 18.501 114.069 18.5461 114.164 18.58L113.998 20.8257H113.809C113.809 20.2501 113.596 19.7875 113.169 19.4489C112.743 19.1104 112.116 18.9411 111.287 18.9411C110.624 18.9411 110.08 19.0991 109.642 19.4038C109.204 19.7085 108.979 20.1034 108.967 20.5774C108.967 20.8031 109.014 20.9949 109.097 21.1755C109.192 21.3561 109.322 21.514 109.5 21.672C109.677 21.83 109.89 21.9767 110.139 22.1234L113.69 24.4255C114.152 24.6851 114.519 25.0462 114.779 25.5202C115.04 25.9828 115.158 26.5132 115.146 27.1C115.123 27.7771 114.921 28.3865 114.543 28.8943C114.164 29.4134 113.643 29.8084 112.98 30.0905C112.317 30.3726 111.559 30.5081 110.695 30.5081C110.174 30.5081 109.665 30.4742 109.168 30.3952C108.671 30.3162 108.245 30.2034 107.866 30.0567C107.499 29.91 107.191 29.7294 106.955 29.515C106.872 29.278 106.836 28.9959 106.848 28.6461C106.86 28.3075 106.907 27.9577 107.002 27.6079C107.097 27.258 107.203 26.9533 107.322 26.7051H107.523C107.487 27.2919 107.582 27.8223 107.842 28.2962C108.091 28.7702 108.47 29.1426 108.979 29.4021C109.476 29.673 110.08 29.8084 110.766 29.8084C111.583 29.7971 112.199 29.6053 112.625 29.2442C113.051 28.883 113.264 28.4316 113.264 27.9013C113.264 27.5627 113.169 27.258 112.968 26.9759C112.767 26.7051 112.447 26.4342 111.986 26.186L108.671 23.9854C108.079 23.6582 107.665 23.2406 107.416 22.7328C107.168 22.225 107.073 21.6946 107.132 21.1304C107.168 20.5435 107.357 20.0244 107.665 19.5843C107.984 19.1442 108.399 18.8057 108.931 18.5574C109.476 18.3317 110.08 18.2076 110.754 18.2076ZM114.199 18.3881L114.176 18.7267H112.21V18.3881H114.199Z" fill="#154759"/>
<path d="M116.2 18.1286C116.306 18.1625 116.484 18.2189 116.732 18.264C116.981 18.3204 117.253 18.3543 117.561 18.3882C117.869 18.422 118.141 18.4333 118.402 18.4333L116.2 18.6251V18.1286ZM127.931 18.4446V19.1668H116.2V18.4446H127.931ZM118.011 19.1104V19.1668C117.502 19.1781 117.111 19.3248 116.827 19.6069C116.543 19.889 116.401 20.2614 116.401 20.7128V20.9498H116.2V19.0991H118.011V19.1104ZM120.888 29.0185V30.2598H119.467V30.068H119.692C120.012 30.068 120.272 29.9664 120.497 29.7633C120.722 29.5601 120.828 29.3119 120.852 29.0298H120.888V29.0185ZM123.291 18.5236V30.2598H120.84V18.5236H123.291ZM123.208 29.0185H123.291C123.291 29.3119 123.409 29.5489 123.634 29.752C123.859 29.9551 124.131 30.0567 124.451 30.0567H124.652V30.2485H123.208V29.0185ZM127.931 18.1286V18.6364L125.705 18.4446C125.978 18.4446 126.274 18.4333 126.57 18.3994C126.877 18.3656 127.15 18.3204 127.41 18.2753C127.659 18.2076 127.836 18.1625 127.931 18.1286ZM127.931 19.1104V20.9611H127.706V20.7241C127.718 20.2614 127.588 19.9003 127.304 19.6182C127.019 19.3361 126.629 19.1894 126.12 19.1781V19.1217H127.931V19.1104Z" fill="#154759"/>
<path d="M130.654 19.6972H130.618C130.606 19.3925 130.488 19.1442 130.275 18.9524C130.062 18.7606 129.801 18.659 129.505 18.659C129.482 18.659 129.387 18.659 129.233 18.659V18.4672H130.796L130.654 19.6972ZM130.654 29.0185L130.796 30.2598H129.233V30.068C129.387 30.068 129.47 30.068 129.482 30.068C129.801 30.068 130.062 29.9664 130.275 29.7633C130.488 29.5602 130.606 29.3119 130.618 29.0298H130.654V29.0185ZM133.033 18.4672V30.2598H130.594V18.4672H133.033ZM135.176 18.4672C135.779 18.4672 136.348 18.5236 136.88 18.6477C137.413 18.7606 137.875 18.9524 138.277 19.212C138.68 19.4715 138.999 19.7988 139.224 20.205C139.449 20.6113 139.567 21.1078 139.567 21.6833C139.567 22.1686 139.461 22.6425 139.236 23.1052C139.011 23.5679 138.691 23.9629 138.242 24.2901C137.804 24.6061 137.247 24.8092 136.596 24.8882C136.939 24.9898 137.283 25.2155 137.638 25.554C137.993 25.8926 138.265 26.2198 138.455 26.5132C138.49 26.581 138.597 26.7277 138.751 26.9534C138.905 27.1791 139.106 27.4499 139.343 27.7546C139.579 28.0593 139.816 28.364 140.065 28.6687C140.337 29.0072 140.586 29.278 140.81 29.4812C141.035 29.6843 141.26 29.831 141.497 29.9213C141.734 30.0115 142.006 30.0567 142.314 30.0567V30.2485H140.952C140.207 30.2485 139.579 30.1808 139.07 30.0567C138.561 29.9213 138.135 29.7181 137.78 29.4473C137.425 29.1765 137.105 28.8266 136.821 28.4204C136.726 28.2737 136.596 28.0818 136.442 27.8336C136.288 27.5853 136.123 27.3258 135.957 27.0549C135.791 26.7841 135.637 26.5358 135.507 26.2876C135.365 26.0506 135.282 25.8587 135.235 25.7233C135.034 25.3283 134.785 25.0237 134.513 24.8205C134.241 24.6061 133.968 24.5045 133.708 24.482V24.3014C133.72 24.3014 133.803 24.3014 133.933 24.3127C134.075 24.324 134.241 24.3127 134.454 24.3014C134.773 24.2901 135.093 24.245 135.412 24.166C135.732 24.087 136.028 23.9177 136.288 23.6582C136.549 23.3986 136.75 22.9924 136.892 22.4394C136.928 22.3379 136.963 22.2024 136.987 22.0445C137.011 21.8865 137.011 21.7059 136.999 21.5141C136.987 21.074 136.904 20.7016 136.75 20.4081C136.596 20.1147 136.407 19.8778 136.17 19.7085C135.933 19.5392 135.685 19.4151 135.412 19.3361C135.14 19.2571 134.88 19.212 134.631 19.2007C134.229 19.1894 133.885 19.1894 133.578 19.1894C133.27 19.2007 133.092 19.2007 133.021 19.2007C133.009 19.1894 132.986 19.1217 132.962 19.0088C132.938 18.896 132.891 18.7041 132.844 18.4559H135.176V18.4672ZM132.986 29.0185H133.021C133.033 29.3232 133.163 29.5714 133.388 29.7633C133.625 29.9551 133.885 30.0567 134.169 30.0567C134.312 30.0567 134.383 30.0567 134.394 30.0567L134.418 30.2485H132.844L132.986 29.0185Z" fill="#154759"/>
<path d="M149.18 18.2076C150.221 18.2076 151.192 18.3543 152.068 18.6364C152.944 18.9298 153.714 19.3361 154.353 19.8777C155.004 20.4194 155.501 21.0626 155.844 21.8187C156.199 22.5748 156.365 23.4212 156.365 24.3691C156.365 25.317 156.188 26.1634 155.844 26.9195C155.489 27.6756 154.992 28.3188 154.353 28.8605C153.702 29.4021 152.944 29.8084 152.068 30.1018C151.192 30.3952 150.221 30.5306 149.18 30.5306C148.138 30.5306 147.167 30.3839 146.291 30.1018C145.415 29.8084 144.646 29.4021 144.007 28.8605C143.367 28.3188 142.87 27.6756 142.527 26.9195C142.172 26.1634 142.006 25.317 142.006 24.3691C142.006 23.4212 142.184 22.5748 142.527 21.8187C142.882 21.0626 143.367 20.4194 144.007 19.8777C144.646 19.3361 145.403 18.9298 146.291 18.6364C147.167 18.3543 148.126 18.2076 149.18 18.2076ZM149.18 29.8084C150.068 29.8084 150.861 29.5827 151.547 29.1426C152.234 28.7025 152.778 28.0592 153.169 27.2467C153.56 26.4229 153.761 25.4637 153.761 24.3691C153.761 23.2519 153.56 22.2927 153.169 21.4802C152.778 20.6677 152.234 20.0357 151.547 19.5956C150.861 19.1555 150.068 18.9298 149.18 18.9298C148.28 18.9298 147.499 19.1555 146.812 19.5956C146.126 20.0357 145.593 20.6677 145.202 21.4802C144.812 22.2927 144.622 23.2519 144.622 24.3691C144.622 25.475 144.812 26.4342 145.202 27.2467C145.593 28.0705 146.126 28.7025 146.812 29.1426C147.487 29.5827 148.28 29.8084 149.18 29.8084Z" fill="#154759"/>
<path d="M176.134 23.5679C176.205 24.2789 176.181 24.9672 176.075 25.6331C175.968 26.2989 175.767 26.9308 175.471 27.5063C175.187 28.0932 174.785 28.601 174.276 29.0411C173.767 29.4812 173.139 29.8197 172.393 30.068C171.648 30.3163 170.783 30.4404 169.789 30.4404C169.103 30.4404 168.428 30.384 167.753 30.2824C167.09 30.1808 166.463 30.0116 165.871 29.7859C165.291 29.5602 164.77 29.2781 164.32 28.9169C163.87 28.5671 163.527 28.1383 163.267 27.653C163.006 27.1565 162.888 26.5923 162.888 25.9377C162.888 25.4525 162.971 25.0237 163.124 24.6513C163.278 24.2789 163.491 23.9516 163.764 23.6582C164.036 23.3648 164.332 23.1278 164.652 22.936C164.971 22.7441 165.303 22.5861 165.646 22.4507C165.977 22.3153 166.297 22.225 166.581 22.1573L166.936 22.5749C166.77 22.7103 166.605 22.8683 166.439 23.0601C166.273 23.252 166.119 23.4777 165.989 23.7259C165.847 23.9855 165.741 24.2676 165.658 24.5949C165.575 24.9108 165.551 25.2832 165.575 25.6895C165.587 26.3327 165.717 26.897 165.977 27.4048C166.226 27.9013 166.569 28.3188 166.995 28.6687C167.422 29.0072 167.919 29.2668 168.475 29.4473C169.043 29.6279 169.647 29.7182 170.286 29.7182C171.02 29.7182 171.648 29.5715 172.192 29.2893C172.737 28.9959 173.187 28.6235 173.542 28.1721C173.897 27.7095 174.169 27.2016 174.335 26.6487C174.512 26.0957 174.583 25.5428 174.548 25.0011C174.524 24.4594 174.394 23.9516 174.157 23.5002C174.003 23.1955 173.826 22.9698 173.613 22.8231C173.4 22.6764 173.151 22.5974 172.855 22.5974H172.547V22.4056H177.128V22.5974H176.844C176.525 22.5974 176.324 22.6877 176.217 22.8683C176.146 23.0263 176.099 23.2745 176.134 23.5679ZM169.612 16.2215C170.132 16.2215 170.641 16.2779 171.139 16.3795C171.636 16.481 172.086 16.639 172.512 16.8422C172.926 17.0453 173.258 17.3048 173.494 17.6208L172.879 20.2389H172.689C172.689 19.6408 172.595 19.0878 172.393 18.6026C172.192 18.1061 171.896 17.7224 171.494 17.4177C171.091 17.1243 170.582 16.9776 169.967 16.9776C169.256 16.9776 168.665 17.2146 168.191 17.6772C167.718 18.1399 167.493 18.7267 167.493 19.4377C167.493 20.2276 167.789 20.9611 168.38 21.6608C168.972 22.3605 169.813 23.173 170.914 24.0983C171.221 24.3353 171.553 24.6061 171.908 24.9221C172.275 25.2381 172.654 25.5541 173.056 25.8813C173.459 26.2086 173.838 26.5133 174.193 26.8067C174.844 27.3258 175.436 27.8223 175.992 28.285C176.548 28.7477 177.081 29.1314 177.578 29.4473C178.076 29.7633 178.561 29.9664 179.034 30.0793L179.058 30.2711C178.608 30.2937 178.064 30.3163 177.436 30.3276C176.809 30.3388 176.146 30.2711 175.459 30.1019C174.761 29.9326 174.086 29.6279 173.423 29.1652C173.009 28.8605 172.595 28.5445 172.18 28.2173C171.766 27.89 171.352 27.5628 170.961 27.2581C170.57 26.9421 170.203 26.6487 169.884 26.3779C169.552 26.107 169.268 25.87 169.02 25.6556C168.227 24.9898 167.516 24.3466 166.901 23.7259C166.285 23.1053 165.788 22.4733 165.433 21.8188C165.078 21.1643 164.9 20.4533 164.9 19.6747C164.9 19.1104 165.019 18.6139 165.267 18.1851C165.516 17.7562 165.859 17.3951 166.297 17.1017C166.735 16.8083 167.244 16.5939 167.8 16.4472C168.369 16.3005 168.972 16.2215 169.612 16.2215Z" fill="#154759"/>
<path d="M188.552 16.2215C188.812 16.2215 189.12 16.2328 189.475 16.2553C189.83 16.2779 190.197 16.3231 190.553 16.3682C190.919 16.4133 191.239 16.4585 191.535 16.5036C191.819 16.5488 192.02 16.5939 192.139 16.6503L191.973 19.1443H191.772C191.772 18.4785 191.523 17.9481 191.014 17.5531C190.517 17.1581 189.866 16.9663 189.061 16.9663C188.268 16.9663 187.629 17.1581 187.155 17.5531C186.682 17.9481 186.433 18.422 186.421 18.9863C186.397 19.3135 186.492 19.6295 186.717 19.9342C186.942 20.2389 187.25 20.5323 187.64 20.7919L191.618 23.6018C192.186 23.9516 192.589 24.3804 192.861 24.8883C193.121 25.3961 193.24 25.9603 193.216 26.5923C193.18 27.7997 192.719 28.759 191.843 29.4586C190.967 30.1696 189.783 30.5194 188.28 30.5194C187.771 30.5194 187.25 30.4743 186.717 30.3953C186.184 30.305 185.699 30.1808 185.261 30.0003C184.823 29.8197 184.468 29.6053 184.208 29.3571C184.125 29.0975 184.089 28.7815 184.101 28.4091C184.113 28.0367 184.172 27.653 184.267 27.2468C184.361 26.8518 184.48 26.5133 184.622 26.2312H184.811C184.752 26.897 184.87 27.5063 185.166 28.048C185.45 28.5897 185.877 29.0185 186.433 29.3232C186.989 29.6279 187.64 29.7746 188.398 29.7633C189.25 29.7407 189.937 29.5038 190.446 29.0749C190.967 28.6461 191.215 28.0819 191.215 27.4048C191.215 27.0098 191.109 26.66 190.884 26.3327C190.659 26.0167 190.316 25.7233 189.854 25.4525L186.125 22.7554C185.498 22.3605 185.048 21.8865 184.776 21.3335C184.503 20.7806 184.397 20.1938 184.432 19.5957C184.468 18.9637 184.657 18.3882 184.989 17.8804C185.32 17.3613 185.782 16.955 186.386 16.6503C186.989 16.3682 187.711 16.2215 188.552 16.2215ZM192.151 16.4133L192.127 16.8309H189.984V16.4133H192.151Z" fill="#154759"/>
<path d="M196.732 28.9169C196.578 29.2893 196.602 29.5601 196.791 29.7633C196.98 29.9551 197.193 30.0567 197.43 30.0567H197.596V30.2485H193.536V30.0567H193.701C193.985 30.0567 194.281 29.9664 194.589 29.7858C194.897 29.6053 195.134 29.3119 195.335 28.9056H196.732V28.9169ZM200.65 18.0045L200.709 20.0244L196.152 30.1921H194.707L199.549 20.2614C199.561 20.205 199.608 20.0922 199.703 19.9116C199.798 19.731 199.892 19.5166 199.999 19.2684C200.105 19.0201 200.212 18.7831 200.295 18.5461C200.39 18.3204 200.437 18.1399 200.449 18.0045H200.65ZM202.651 26.1634V26.8743H197.312V26.1634H202.651ZM200.65 18.0045L206.604 30.1357H203.74L199.715 20.9949L200.65 18.0045ZM203.207 28.9169H206.013C206.202 29.3232 206.451 29.6166 206.758 29.7971C207.066 29.9777 207.35 30.068 207.622 30.068H207.788V30.2598H202.343V30.068H202.509C202.745 30.068 202.958 29.9664 203.148 29.7745C203.337 29.5714 203.361 29.2893 203.207 28.9169Z" fill="#154759"/>
<path d="M209.422 29.0636V30.2598H207.895V30.068H208.226C208.546 30.068 208.806 29.9777 209.031 29.7859C209.256 29.594 209.363 29.357 209.363 29.0636H209.422ZM209.351 18.1851L211.541 20.521V30.2485H209.351V20.4759C209.351 19.8101 209.28 19.0427 209.15 18.1738H209.351V18.1851ZM209.351 18.1851L221.224 28.364L221.425 30.5081L209.552 20.3066L209.351 18.1851ZM211.541 29.0636C211.553 29.357 211.671 29.594 211.896 29.7859C212.121 29.9777 212.381 30.068 212.665 30.068H213.02V30.2598H211.493V29.0636H211.541ZM219.235 19.6634C219.223 19.37 219.105 19.133 218.88 18.9411C218.655 18.7493 218.395 18.659 218.099 18.659H217.744V18.4672H219.271V19.6634H219.235ZM221.425 18.4672V28.1609C221.425 28.6122 221.437 29.0072 221.473 29.357C221.508 29.7069 221.555 30.1018 221.626 30.5194H221.437L219.235 28.0819V18.4672H221.425ZM221.354 19.6634V18.4672H222.905V18.659H222.55C222.242 18.659 221.982 18.7493 221.757 18.9411C221.532 19.133 221.413 19.37 221.413 19.6634H221.354Z" fill="#154759"/>
<path d="M223.663 18.1286C223.769 18.1625 223.947 18.2189 224.195 18.264C224.444 18.3204 224.716 18.3543 225.024 18.3882C225.332 18.422 225.604 18.4333 225.864 18.4333L223.663 18.6251V18.1286ZM235.406 18.4446V19.1668H223.674V18.4446H235.406ZM225.486 19.1104V19.1668C224.977 19.1781 224.586 19.3248 224.302 19.6069C224.018 19.889 223.876 20.2614 223.876 20.7128V20.9498H223.674V19.0991H225.486V19.1104ZM228.35 29.0185V30.2598H226.93V30.068H227.155C227.474 30.068 227.735 29.9664 227.96 29.7633C228.185 29.5601 228.291 29.3119 228.315 29.0298H228.35V29.0185ZM230.765 18.5236V30.2598H228.315V18.5236H230.765ZM230.682 29.0185H230.765C230.765 29.3119 230.884 29.5489 231.108 29.752C231.333 29.9551 231.606 30.0567 231.925 30.0567H232.126V30.2485H230.682V29.0185ZM235.406 18.1286V18.6364L233.18 18.4446C233.452 18.4446 233.748 18.4333 234.044 18.3994C234.352 18.3656 234.624 18.3204 234.885 18.2753C235.133 18.2076 235.311 18.1625 235.406 18.1286ZM235.406 19.1104V20.9611H235.181V20.7241C235.192 20.2614 235.062 19.9003 234.778 19.6182C234.494 19.3361 234.103 19.1894 233.594 19.1781V19.1217H235.406V19.1104Z" fill="#154759"/>
<path d="M243.301 18.2076C244.343 18.2076 245.314 18.3543 246.19 18.6364C247.066 18.9298 247.835 19.3361 248.474 19.8777C249.125 20.4194 249.623 21.0626 249.966 21.8187C250.321 22.5748 250.487 23.4212 250.487 24.3691C250.487 25.317 250.309 26.1634 249.966 26.9195C249.611 27.6756 249.114 28.3188 248.474 28.8605C247.823 29.4021 247.066 29.8084 246.19 30.1018C245.314 30.3952 244.343 30.5306 243.301 30.5306C242.26 30.5306 241.289 30.3839 240.413 30.1018C239.537 29.8084 238.767 29.4021 238.128 28.8605C237.489 28.3188 236.992 27.6756 236.649 26.9195C236.293 26.1634 236.128 25.317 236.128 24.3691C236.128 23.4212 236.305 22.5748 236.649 21.8187C237.004 21.0626 237.489 20.4194 238.128 19.8777C238.767 19.3361 239.525 18.9298 240.413 18.6364C241.289 18.3543 242.26 18.2076 243.301 18.2076ZM243.301 29.8084C244.189 29.8084 244.982 29.5827 245.669 29.1426C246.355 28.7025 246.9 28.0592 247.291 27.2467C247.681 26.4229 247.883 25.4637 247.883 24.3691C247.883 23.2519 247.681 22.2927 247.291 21.4802C246.9 20.6677 246.355 20.0357 245.669 19.5956C244.982 19.1555 244.189 18.9298 243.301 18.9298C242.402 18.9298 241.62 19.1555 240.934 19.5956C240.247 20.0357 239.714 20.6677 239.324 21.4802C238.933 22.2927 238.744 23.2519 238.744 24.3691C238.744 25.475 238.933 26.4342 239.324 27.2467C239.703 28.0705 240.247 28.7025 240.934 29.1426C241.62 29.5827 242.402 29.8084 243.301 29.8084Z" fill="#154759"/>
<path d="M256.228 18.2076C256.548 18.2076 256.879 18.2189 257.234 18.2414C257.589 18.264 257.921 18.2866 258.252 18.3317C258.584 18.3656 258.88 18.4107 259.128 18.4558C259.377 18.501 259.554 18.5461 259.649 18.58L259.483 20.8257H259.294C259.294 20.2501 259.081 19.7875 258.655 19.4489C258.229 19.1104 257.601 18.9411 256.773 18.9411C256.11 18.9411 255.565 19.0991 255.127 19.4038C254.689 19.7085 254.464 20.1034 254.452 20.5774C254.452 20.8031 254.5 20.9949 254.583 21.1755C254.677 21.3561 254.808 21.514 254.985 21.672C255.163 21.83 255.376 21.9767 255.624 22.1234L259.176 24.4255C259.637 24.6851 260.004 25.0462 260.265 25.5202C260.525 25.9828 260.655 26.5132 260.632 27.1C260.608 27.7771 260.407 28.3865 260.028 28.8943C259.649 29.4134 259.128 29.8084 258.465 30.0905C257.802 30.3726 257.045 30.5081 256.181 30.5081C255.66 30.5081 255.151 30.4742 254.654 30.3952C254.156 30.3162 253.73 30.2034 253.352 30.0567C252.985 29.91 252.677 29.7294 252.44 29.515C252.357 29.278 252.322 28.9959 252.333 28.6461C252.345 28.3075 252.393 27.9577 252.487 27.6079C252.582 27.258 252.689 26.9533 252.807 26.7051H253.008C252.973 27.2919 253.067 27.8223 253.328 28.2962C253.576 28.7702 253.955 29.1426 254.464 29.4021C254.961 29.673 255.565 29.8084 256.252 29.8084C257.069 29.7971 257.684 29.6053 258.11 29.2442C258.536 28.883 258.75 28.4316 258.75 27.9013C258.75 27.5627 258.655 27.258 258.454 26.9759C258.252 26.7051 257.933 26.4342 257.471 26.186L254.156 23.9854C253.565 23.6582 253.15 23.2406 252.902 22.7328C252.653 22.225 252.558 21.6946 252.618 21.1304C252.653 20.5435 252.842 20.0244 253.15 19.5843C253.47 19.1442 253.884 18.8057 254.417 18.5574C254.961 18.3317 255.553 18.2076 256.228 18.2076ZM259.673 18.3881L259.649 18.7267H257.696V18.3881H259.673Z" fill="#154759"/>
<path d="M127.756 42.9774H126.992L130.091 36.3135H130.781L133.894 42.9774H133.116L132.25 41.1434H128.608L127.756 42.9774ZM130.429 37.1955L128.843 40.5414H132L130.429 37.1955Z" fill="#D29729"/>
<path d="M139.813 42.9775H137.536V36.3556H139.813C140.944 36.3556 141.839 36.6636 142.53 37.2796C143.22 37.8956 143.572 38.6936 143.572 39.6736C143.572 40.6535 143.22 41.4515 142.53 42.0675C141.854 42.6695 140.944 42.9775 139.813 42.9775ZM138.285 36.9856V42.3335H139.739C140.694 42.3335 141.458 42.0955 142.016 41.6055C142.574 41.1295 142.853 40.4715 142.853 39.6596C142.853 38.8336 142.574 38.1896 142.016 37.7136C141.458 37.2236 140.694 36.9856 139.739 36.9856H138.285Z" fill="#D29729"/>
<path d="M150.284 43.0195H149.594L146.539 36.3556H147.347L149.946 42.0535L152.545 36.3556H153.353L150.284 43.0195Z" fill="#D29729"/>
<path d="M157.274 37.2235C157.95 36.5655 158.772 36.2435 159.771 36.2435C160.769 36.2435 161.592 36.5655 162.267 37.2235C162.943 37.8815 163.266 38.6935 163.266 39.6735C163.266 40.6535 162.928 41.4655 162.267 42.1235C161.606 42.7675 160.769 43.1035 159.771 43.1035C158.757 43.1035 157.935 42.7815 157.274 42.1235C156.613 41.4795 156.276 40.6535 156.276 39.6735C156.276 38.6795 156.613 37.8675 157.274 37.2235ZM157.818 41.6335C158.346 42.1655 158.992 42.4315 159.771 42.4315C160.549 42.4315 161.21 42.1655 161.724 41.6335C162.253 41.1015 162.517 40.4435 162.517 39.6595C162.517 38.8755 162.253 38.2175 161.724 37.6855C161.195 37.1535 160.549 36.8875 159.771 36.8875C158.992 36.8875 158.332 37.1535 157.818 37.6855C157.289 38.2175 157.024 38.8755 157.024 39.6595C157.024 40.4435 157.289 41.1015 157.818 41.6335Z" fill="#D29729"/>
<path d="M170.623 43.0894C169.61 43.0894 168.758 42.7674 168.068 42.1234C167.393 41.4794 167.055 40.6534 167.055 39.6595C167.055 38.6655 167.393 37.8535 168.068 37.2095C168.744 36.5655 169.595 36.2295 170.623 36.2295C171.372 36.2295 172.033 36.3975 172.577 36.7195V37.4335C171.975 37.0555 171.328 36.8735 170.638 36.8735C169.845 36.8735 169.17 37.1395 168.626 37.6715C168.083 38.1895 167.818 38.8475 167.818 39.6455C167.818 40.4574 168.083 41.1154 168.626 41.6334C169.17 42.1514 169.86 42.4174 170.668 42.4174C171.475 42.4174 172.165 42.1934 172.738 41.7594V42.4874C172.151 42.8934 171.446 43.0894 170.623 43.0894Z" fill="#D29729"/>
<path d="M176.659 42.9774H175.896L178.994 36.3135H179.685L182.798 42.9774H182.02L181.153 41.1434H177.511L176.659 42.9774ZM179.332 37.1955L177.746 40.5414H180.903L179.332 37.1955Z" fill="#D29729"/>
<path d="M189.23 43.0894C188.217 43.0894 187.365 42.7674 186.675 42.1234C185.999 41.4794 185.662 40.6534 185.662 39.6595C185.662 38.6655 185.999 37.8535 186.675 37.2095C187.351 36.5655 188.202 36.2295 189.23 36.2295C189.979 36.2295 190.64 36.3975 191.184 36.7195V37.4335C190.581 37.0555 189.935 36.8735 189.245 36.8735C188.452 36.8735 187.776 37.1395 187.233 37.6715C186.69 38.1895 186.425 38.8475 186.425 39.6455C186.425 40.4574 186.69 41.1154 187.233 41.6334C187.776 42.1514 188.467 42.4174 189.274 42.4174C190.082 42.4174 190.772 42.1934 191.345 41.7594V42.4874C190.758 42.8934 190.053 43.0894 189.23 43.0894Z" fill="#D29729"/>
<path d="M195.971 42.9775H195.237V36.3556H195.971V42.9775Z" fill="#D29729"/>
<path d="M200.436 42.9774H199.672L202.771 36.3135H203.461L206.574 42.9774H205.796L204.929 41.1434H201.287L200.436 42.9774ZM203.108 37.1955L201.522 40.5414H204.68L203.108 37.1955Z" fill="#D29729"/>
<defs>
<linearGradient id="paint0_linear_4_175" x1="37.0486" y1="10.0929" x2="37.5772" y2="46.9136" gradientUnits="userSpaceOnUse">
<stop stop-color="#DBA85A"/>
<stop offset="0.1086" stop-color="#D5A356"/>
<stop offset="0.2473" stop-color="#C6954C"/>
<stop offset="0.4017" stop-color="#AC7F3B"/>
<stop offset="0.4296" stop-color="#A67A37"/>
<stop offset="0.5514" stop-color="#A07635"/>
<stop offset="0.7066" stop-color="#916A30"/>
<stop offset="0.8229" stop-color="#805E2A"/>
</linearGradient>
<linearGradient id="paint1_linear_4_175" x1="36.9945" y1="10.0936" x2="37.5231" y2="46.9144" gradientUnits="userSpaceOnUse">
<stop stop-color="#DBA85A"/>
<stop offset="0.1086" stop-color="#D5A356"/>
<stop offset="0.2473" stop-color="#C6954C"/>
<stop offset="0.4017" stop-color="#AC7F3B"/>
<stop offset="0.4296" stop-color="#A67A37"/>
<stop offset="0.5514" stop-color="#A07635"/>
<stop offset="0.7066" stop-color="#916A30"/>
<stop offset="0.8229" stop-color="#805E2A"/>
</linearGradient>
<linearGradient id="paint2_linear_4_175" x1="60.6259" y1="-2.29793" x2="60.6259" y2="44.6143" gradientUnits="userSpaceOnUse">
<stop stop-color="#DBA85A"/>
<stop offset="0.1086" stop-color="#D5A356"/>
<stop offset="0.2473" stop-color="#C6954C"/>
<stop offset="0.4017" stop-color="#AC7F3B"/>
<stop offset="0.4296" stop-color="#A67A37"/>
<stop offset="0.5514" stop-color="#A07635"/>
<stop offset="0.7066" stop-color="#916A30"/>
<stop offset="0.8229" stop-color="#805E2A"/>
</linearGradient>
<linearGradient id="paint3_linear_4_175" x1="14.1517" y1="-2.298" x2="14.1517" y2="44.6142" gradientUnits="userSpaceOnUse">
<stop stop-color="#DBA85A"/>
<stop offset="0.1086" stop-color="#D5A356"/>
<stop offset="0.2473" stop-color="#C6954C"/>
<stop offset="0.4017" stop-color="#AC7F3B"/>
<stop offset="0.4296" stop-color="#A67A37"/>
<stop offset="0.5514" stop-color="#A07635"/>
<stop offset="0.7066" stop-color="#916A30"/>
<stop offset="0.8229" stop-color="#805E2A"/>
</linearGradient>
<linearGradient id="paint4_linear_4_175" x1="37.3766" y1="-2.29798" x2="37.3766" y2="44.6142" gradientUnits="userSpaceOnUse">
<stop stop-color="#DBA85A"/>
<stop offset="0.1086" stop-color="#D5A356"/>
<stop offset="0.2473" stop-color="#C6954C"/>
<stop offset="0.4017" stop-color="#AC7F3B"/>
<stop offset="0.4296" stop-color="#A67A37"/>
<stop offset="0.5514" stop-color="#A07635"/>
<stop offset="0.7066" stop-color="#916A30"/>
<stop offset="0.8229" stop-color="#805E2A"/>
</linearGradient>
</defs>
</svg>
